<svg width="95" height="64" viewBox="0 0 95 64" fill="none" xmlns="http://www.w3.org/2000/svg">
<g clip-path="url(#clip0_8_885)">
<path d="M43.5876 39.4661C41.7907 39.4661 40.2258 39.1801 38.8926 38.5507C37.5595 37.9214 36.5162 37.006 35.8206 35.8046C35.1251 34.6031 34.7194 33.23 34.7194 31.6853C34.7194 29.5113 35.0671 27.5661 35.8786 25.8497C36.6901 24.1334 37.8493 22.8175 39.2404 21.9021C40.6895 20.9295 42.2544 20.4718 43.9933 20.4718C45.6162 20.4718 46.8335 20.8723 47.7029 21.6733C48.5723 22.4742 48.9781 23.5613 48.9781 24.9343C48.9781 25.8497 48.8042 26.5935 48.5144 27.1084C48.2245 27.6805 47.7608 27.9666 47.1233 27.9666C46.7175 27.9666 46.3698 27.8521 46.1379 27.6805C45.9061 27.5089 45.7901 27.2228 45.7901 26.8223C45.7901 26.7079 45.7901 26.4218 45.8481 26.0786C45.9061 25.6209 45.964 25.2776 45.964 24.9916C45.964 23.6185 45.2105 22.9891 43.7615 22.9891C42.7761 22.9891 41.8487 23.3324 40.9213 23.9617C40.0519 24.5911 39.2984 25.5637 38.7767 26.8223C38.2551 28.081 37.9652 29.5113 37.9652 31.2276C37.9652 33.0012 38.4869 34.3743 39.5302 35.3469C40.5735 36.3195 42.0226 36.7772 43.9933 36.7772C44.9787 36.7772 45.964 36.6627 46.9494 36.3767C47.9347 36.0906 49.094 35.7474 50.2532 35.2324C50.4851 35.118 50.659 35.118 50.8328 35.118C51.0647 35.118 51.2386 35.1752 51.3545 35.4041C51.4704 35.5757 51.5284 35.8046 51.5284 36.0906C51.5284 37.006 51.0647 37.6925 50.0793 38.093C49.036 38.5507 47.8768 38.894 46.7175 39.1801C45.7322 39.2945 44.6309 39.4089 43.5876 39.4661Z" fill="#323232"/>
<path d="M52.7456 39.3517C51.8182 39.3517 51.0647 39.0084 50.4851 38.3791C49.9055 37.6926 49.6157 36.8344 49.6157 35.7474C49.6157 34.5459 49.8475 33.4589 50.4271 32.3719C50.9488 31.2849 51.7023 30.4267 52.6297 29.7974C53.5571 29.1108 54.5424 28.8248 55.5858 28.7675C55.9335 28.7675 56.1074 28.8248 56.2234 28.9392C56.3393 29.0536 56.4552 29.2825 56.5132 29.6257C56.803 29.5685 57.1507 29.5113 57.4985 29.5113C58.252 29.5113 58.5998 29.7401 58.5998 30.2551C58.5998 30.5411 58.4839 31.2849 58.31 32.4863C57.9622 34.2027 57.8463 35.4041 57.8463 36.0334C57.8463 36.2623 57.9043 36.4339 58.0202 36.5483C58.1361 36.6628 58.31 36.72 58.4839 36.72C58.7737 36.72 59.1215 36.5483 59.5272 36.1479C59.9329 35.7474 60.4546 35.1753 61.1501 34.3743C61.324 34.1454 61.5559 34.031 61.7298 34.031C61.9036 34.031 62.0775 34.0882 62.1935 34.3171C62.3094 34.4887 62.3673 34.7176 62.3673 35.0608C62.3673 35.6329 62.2514 36.0906 61.9616 36.4339C61.324 37.1777 60.6864 37.8642 59.9909 38.3791C59.2953 38.894 58.6578 39.1801 57.9622 39.1801C57.4406 39.1801 56.9769 39.0084 56.5711 38.7224C56.1654 38.3791 55.8756 37.9214 55.6437 37.3493C54.8902 38.7224 53.9049 39.3517 52.7456 39.3517ZM53.4991 37.0632C53.8469 37.0632 54.1367 36.8916 54.4265 36.4911C54.7163 36.0906 54.9482 35.5757 55.0641 34.9464L55.8756 30.8272C55.238 30.8272 54.6584 31.1132 54.1367 31.5709C53.6151 32.0286 53.2093 32.6007 52.8615 33.3445C52.5717 34.0882 52.3978 34.8892 52.3978 35.6902C52.3978 36.1479 52.5138 36.4911 52.6877 36.72C52.9195 37.006 53.2093 37.1205 53.4991 37.0632Z" fill="#323232"/>
<path d="M69.3228 32.8295C69.7285 32.8295 69.9604 33.1156 69.9604 33.7449C69.9604 34.9464 69.033 35.5185 67.1782 35.5185C66.8304 35.5185 66.3088 35.4613 65.6132 35.3468C65.8451 36.2622 65.961 37.292 66.1349 38.4363C66.3088 39.5233 66.3667 40.4959 66.3667 41.1824C66.3667 42.7844 66.1349 44.043 65.6132 44.844C65.0916 45.7022 64.396 46.1026 63.5266 46.1599C62.4253 46.1599 61.6718 45.4161 61.1501 43.9286C60.6864 42.4411 60.4546 40.1526 60.3966 37.0632C60.3387 34.2026 60.6285 31.342 61.2081 28.367C61.7877 25.392 62.6572 22.9891 63.7005 21.0439C64.8018 19.0987 65.961 18.1261 67.2941 18.1261C67.9897 18.1261 68.5693 18.4122 68.975 19.0415C69.3808 19.6708 69.6126 20.4718 69.6126 21.5588C69.6706 25.0487 67.5839 28.8819 63.3527 33.0584C63.2368 34.4887 63.1788 35.8045 63.1788 36.8916C63.1788 38.4363 63.2368 39.981 63.4107 41.5829C63.5266 43.1849 63.7005 43.9858 63.9323 43.9858C64.396 43.9858 64.6279 43.1848 64.5699 41.6401C64.5699 40.4959 64.454 39.3517 64.2801 38.2646C64.1062 37.1776 63.8744 36.0334 63.5845 34.8319C63.5845 34.6603 63.6425 34.3742 63.7584 34.0882C63.9323 33.8021 64.1062 33.5161 64.2801 33.2872C64.5119 33.0584 64.6858 32.944 64.8597 32.944C65.1495 32.944 65.4973 32.944 65.961 33.0012C66.0769 33.0012 66.2508 33.0012 66.4247 33.0012C67.0043 33.0012 67.6999 32.944 68.4534 32.8295C68.5693 32.8295 68.6852 32.7723 68.8591 32.7723C69.033 32.8295 69.1489 32.8295 69.3228 32.8295ZM66.8884 20.3574C66.5986 20.3574 66.3088 20.8151 65.903 21.7305C65.4973 22.6459 65.1495 23.8473 64.7438 25.3348C64.396 26.8223 64.0482 28.4242 63.7584 30.0834C64.9756 28.7103 65.8451 27.28 66.4827 25.8497C67.1202 24.3622 67.41 22.9891 67.41 21.7305C67.468 20.8151 67.2362 20.3574 66.8884 20.3574Z" fill="#323232"/>
<path d="M76.3362 34.7175C76.51 34.7175 76.6839 34.7747 76.7999 35.0036C76.9158 35.1752 76.9737 35.4041 76.9737 35.7473C76.9737 36.2622 76.8578 36.7199 76.626 37.1204C76.2202 37.7497 75.6406 38.2646 74.9451 38.6079C74.2495 38.9512 73.438 39.18 72.5107 39.18C71.0616 39.18 69.9603 38.7795 69.1488 37.9214C68.3374 37.0632 67.9316 35.919 67.9316 34.4315C67.9316 33.4016 68.1055 32.429 68.5692 31.5709C68.975 30.6555 69.6125 29.9689 70.3661 29.454C71.1196 28.9391 72.047 28.6531 72.9744 28.6531C73.8438 28.6531 74.5393 28.8819 75.061 29.3968C75.5826 29.9117 75.8725 30.5983 75.8725 31.4564C75.8725 32.4863 75.5247 33.3444 74.7712 34.1454C74.0177 34.8891 72.8005 35.4613 71.0036 35.919C71.3514 36.6055 71.989 36.9488 72.8584 36.9488C73.496 36.9488 73.9597 36.7771 74.3654 36.4911C74.7712 36.205 75.2349 35.7473 75.7565 35.0608C75.9304 34.8319 76.1043 34.7175 76.3362 34.7175ZM72.5686 30.8271C71.989 30.8271 71.5253 31.1704 71.1775 31.7997C70.8298 32.429 70.6559 33.23 70.6559 34.1454V34.2026C71.5253 33.9738 72.2208 33.6877 72.7425 33.23C73.2642 32.8295 73.496 32.3146 73.496 31.7997C73.496 31.5137 73.3801 31.2848 73.2642 31.1132C73.0903 30.9415 72.8584 30.8271 72.5686 30.8271Z" fill="#323232"/>
<path d="M52.0501 47.819C52.0501 49.0777 51.7603 50.2219 51.0647 51.3089C50.4271 52.396 49.4418 53.2541 48.2246 53.9407C46.9494 54.6272 45.4424 55.0277 43.7035 55.1421L42.7761 60.52C42.4284 62.5796 41.385 63.6095 39.7621 63.6667C38.8347 63.6667 37.9653 63.4378 37.2118 62.8657C36.4583 62.3508 35.8207 61.5498 35.357 60.4056C34.8933 59.3186 34.6035 57.9455 34.6035 56.3436C34.5455 53.3114 35.0092 50.7368 35.9946 48.6772C36.9799 46.5604 38.2551 44.9584 39.936 43.9286C41.6169 42.8416 43.4137 42.3267 45.4424 42.2695C46.8335 42.2695 48.0507 42.4983 49.036 42.956C50.0214 43.4137 50.7749 44.1003 51.2966 44.9584C51.7603 45.8166 52.0501 46.732 52.0501 47.819ZM44.1093 52.7964C47.1813 52.396 48.7462 50.794 48.6883 47.9907C48.6883 47.0181 48.3405 46.2171 47.645 45.5878C47.0074 44.9584 45.964 44.6724 44.6309 44.6724C43.0659 44.6724 41.7328 45.1873 40.5736 46.1599C39.4143 47.1325 38.5449 48.5056 37.9653 50.2219C37.3856 51.9383 37.0958 53.8835 37.0958 56.1147C37.0958 57.0301 37.2118 57.8311 37.3856 58.5748C37.6175 59.2614 37.8493 59.8335 38.1392 60.234C38.429 60.6344 38.7188 60.8061 39.0086 60.8061C39.3564 60.8061 39.6462 60.2912 39.878 59.2614L40.5736 55.0277C39.9939 54.9705 39.7041 54.9133 39.8201 54.9133C39.3564 54.8561 39.0665 54.6844 38.9506 54.5128C38.8347 54.2839 38.7188 54.0551 38.7188 53.7118C38.7188 53.3686 38.7767 53.1397 39.0086 52.9109C39.1825 52.7392 39.4723 52.6248 39.8201 52.6248C39.9939 52.6248 40.1099 52.6248 40.1678 52.6248C40.5156 52.682 40.8054 52.7392 40.9793 52.7392C41.1532 51.595 41.443 49.9931 41.7908 48.0479C41.8487 47.533 42.0806 47.1897 42.3704 46.9609C42.7182 46.732 43.0659 46.6176 43.5296 46.6176C44.0513 46.6176 44.3991 46.732 44.573 46.9036C44.8048 47.0753 44.9207 47.3613 44.9207 47.7618C44.9207 47.9907 44.9207 48.2195 44.8628 48.3339L44.1093 52.7964Z" fill="#323232"/>
<path d="M54.3105 61.1494C53.3252 61.1494 52.6296 60.8061 52.1659 60.1195C51.7022 59.433 51.4704 58.5176 51.4704 57.4306C51.4704 56.7441 51.5284 55.8859 51.7022 54.8561C51.8761 53.8263 52.108 52.7964 52.3398 51.8811C52.4558 51.4234 52.6296 51.0801 52.8615 50.9085C53.0933 50.7368 53.4411 50.6224 53.9628 50.6224C54.7163 50.6224 55.122 50.8513 55.122 51.3662C55.122 51.7094 55.0061 52.6248 54.7163 53.9407C54.3685 55.5998 54.1946 56.6868 54.1946 57.259C54.1946 57.7167 54.2526 58.0599 54.3685 58.2888C54.4844 58.5176 54.7163 58.632 55.0061 58.632C55.2959 58.632 55.5857 58.4604 55.9914 58.0599C56.3972 57.6594 56.9188 57.0873 57.6144 56.2864C57.7883 56.0575 58.0201 55.9431 58.194 55.9431C58.3679 55.9431 58.5418 56.0003 58.6577 56.2291C58.7736 56.4008 58.8316 56.6296 58.8316 56.9729C58.8316 57.545 58.7157 58.0027 58.4259 58.346C56.9768 60.234 55.5857 61.1494 54.3105 61.1494Z" fill="#323232"/>
<path d="M61.2661 61.607C60.4546 61.607 59.875 61.4354 59.4692 61.0921C59.0635 60.7488 58.8316 60.3483 58.8316 59.8907C58.8316 59.4902 58.9476 59.1469 59.2374 58.8608C59.5272 58.5748 59.9329 58.4032 60.5125 58.4032C60.6864 58.4032 60.9183 58.4031 61.2081 58.4604C61.4979 58.4604 61.6718 58.5176 61.8457 58.5176C61.8457 58.1171 61.7297 57.7738 61.5559 57.4306C61.382 57.0873 61.2081 56.744 60.9762 56.458C60.7444 56.1147 60.5125 55.8286 60.2807 55.5998C59.817 56.458 59.3533 57.2017 58.8896 57.7738C58.4259 58.3459 57.9622 58.9181 57.4405 59.433C57.1507 59.719 56.8609 59.8334 56.5711 59.8334C56.3393 59.8334 56.1074 59.7762 55.9915 59.6046C55.8176 59.433 55.7596 59.2041 55.7596 58.9753C55.7596 58.6892 55.8756 58.4031 56.0495 58.1743L56.3393 57.831C57.1507 56.8012 57.7883 56.0003 58.1941 55.3137C58.4259 54.856 58.7157 54.2839 59.0635 53.5974C59.4113 52.8536 59.759 52.1099 60.0488 51.3089C60.3387 50.6796 60.9183 50.3363 61.8457 50.3363C62.2514 50.3363 62.5412 50.3935 62.7151 50.4507C62.889 50.5079 62.947 50.6224 62.947 50.794C62.947 50.9084 62.947 51.0228 62.889 51.1945C62.831 51.3661 62.7731 51.595 62.6571 51.7666C62.3673 52.2815 62.2514 52.7392 62.2514 53.1397C62.2514 53.3685 62.3094 53.5974 62.4833 53.8834C62.6571 54.1695 62.889 54.4555 63.2368 54.856C63.7005 55.4854 64.1062 56.0003 64.338 56.458C64.5699 56.8584 64.7438 57.3733 64.7438 57.8882C64.7438 58.0599 64.7438 58.2315 64.6858 58.5176C65.4393 58.2315 66.2508 57.4878 67.2362 56.2291C67.41 56.0003 67.6419 55.8858 67.8158 55.8858C67.9897 55.8858 68.1636 55.943 68.2795 56.1719C68.3954 56.3435 68.4534 56.5724 68.4534 56.9156C68.4534 57.4878 68.3374 57.9455 68.0476 58.2887C67.2941 59.2041 66.5986 59.8334 65.903 60.2339C65.2075 60.5772 64.396 60.7488 63.3527 60.806C62.831 61.3209 62.1355 61.607 61.2661 61.607Z" fill="#323232"/>
<path d="M76.7419 55.8859C76.9158 55.8859 77.0897 55.9431 77.2056 56.172C77.3215 56.3436 77.3795 56.5724 77.3795 56.9157C77.3795 57.4878 77.2636 57.9455 76.9737 58.2888C76.3362 59.0898 75.6406 59.7191 74.8871 60.234C74.1336 60.7489 73.2642 61.035 72.2788 61.035C69.2068 61.0922 67.6418 58.9753 67.5839 54.6845C67.5839 54.0551 67.5839 53.3686 67.6418 52.682H66.7724C66.3087 52.682 66.0189 52.6248 65.845 52.4532C65.6711 52.2816 65.6132 52.0527 65.6132 51.6522C65.6132 50.7941 65.9609 50.3936 66.5985 50.3936H67.8737C68.1055 48.7344 68.5113 47.2469 68.975 45.8739C69.4966 44.5008 70.1342 43.4138 70.8298 42.6128C71.5833 41.8118 72.3947 41.4113 73.2062 41.4113C73.8438 41.4113 74.3654 41.6974 74.7132 42.2123C75.061 42.7844 75.2928 43.471 75.2928 44.2719C75.2928 46.5604 74.3654 48.62 72.3947 50.3364H74.9451C75.1769 50.3364 75.3508 50.3936 75.4667 50.508C75.5827 50.6224 75.6406 50.7941 75.6406 51.0801C75.6406 52.1099 74.8291 52.6248 73.0903 52.6248H70.3081C70.3081 53.3686 70.2501 53.9407 70.3081 54.3412C70.3081 55.8859 70.5399 56.9729 70.8877 57.6023C71.2935 58.2316 71.8731 58.5176 72.6845 58.5176C73.3221 58.5176 73.9017 58.2888 74.4234 57.9455C74.9451 57.545 75.5247 56.9729 76.1623 56.172C76.3362 56.0003 76.51 55.8859 76.7419 55.8859ZM72.6845 43.5282C72.4527 43.5282 72.2208 43.8142 71.931 44.3864C71.6412 44.9585 71.4094 45.7022 71.1775 46.732C70.9457 47.7046 70.7718 48.7917 70.5979 49.9931C71.4673 49.2493 72.1049 48.3912 72.5686 47.4186C73.0323 46.446 73.2062 45.5878 73.2062 44.844C73.1482 43.9859 72.9744 43.5282 72.6845 43.5282Z" fill="#EA3846"/>
<path d="M87.0592 53.8834C87.2331 53.8834 87.4069 53.9978 87.5229 54.1695C87.6388 54.3411 87.6968 54.6272 87.6968 54.9132C87.6968 55.5998 87.4649 56.0575 87.0592 56.1719C86.1318 56.5152 85.1464 56.6868 84.1031 56.744C83.8133 58.0027 83.2916 59.0325 82.4222 59.7762C81.6107 60.52 80.6254 60.9205 79.5821 60.9205C78.6547 60.9205 77.9011 60.7488 77.2636 60.2911C76.626 59.8907 76.1623 59.3185 75.8145 58.5748C75.4667 57.8882 75.2928 57.0873 75.2928 56.2863C75.2928 55.1421 75.4667 54.1695 75.9304 53.2541C76.3362 52.3387 76.9738 51.6522 77.7273 51.1373C78.4808 50.6224 79.3502 50.3363 80.2776 50.3363C81.4368 50.3363 82.3642 50.7368 83.0598 51.4805C83.7553 52.2243 84.219 53.1969 84.3349 54.3411C85.0305 54.2839 85.8999 54.1123 86.8853 53.8834C86.8273 53.8834 86.9432 53.8834 87.0592 53.8834ZM79.698 58.5748C80.1617 58.5748 80.5674 58.3459 80.9152 58.0027C81.263 57.6022 81.4948 57.0301 81.6107 56.3435C81.147 56.0575 80.7993 55.657 80.5094 55.1421C80.2776 54.6272 80.1617 54.1123 80.1037 53.5402C80.1037 53.3113 80.1037 53.0825 80.1617 52.8536H80.0458C79.4661 52.8536 78.9445 53.1397 78.5387 53.7118C78.133 54.2839 77.9591 55.0849 77.9591 56.1147C77.9591 56.9156 78.133 57.545 78.4808 58.0027C78.8865 58.3459 79.2343 58.5748 79.698 58.5748Z" fill="#323232"/>
<path d="M87.407 60.8633C86.8274 60.8633 86.4217 60.5772 86.1898 60.0051C85.958 59.433 85.842 58.4604 85.842 57.1445C85.842 55.1993 86.0739 53.3685 86.5955 51.6522C86.7115 51.1945 86.9433 50.9084 87.2331 50.7368C87.5229 50.5079 87.9866 50.3935 88.5663 50.3935C88.8561 50.3935 89.0879 50.4507 89.2038 50.5079C89.3198 50.5651 89.3777 50.7368 89.3777 50.9084C89.3777 51.1373 89.2618 51.7094 89.03 52.5103C88.914 53.0825 88.7981 53.6546 88.6822 54.0551C88.6242 54.5128 88.5083 55.0277 88.4503 55.7142C88.914 54.4555 89.4937 53.3685 90.0733 52.5676C90.7109 51.7666 91.2905 51.1945 91.8701 50.8512C92.4497 50.5079 93.0293 50.3363 93.493 50.3363C93.9567 50.3363 94.3625 50.4507 94.5943 50.6796C94.8262 50.9084 95.0001 51.2517 95.0001 51.7666C95.0001 52.1671 94.9421 52.9108 94.7682 53.9406C94.6523 54.856 94.5364 55.7142 94.4204 56.5152C94.3625 57.3161 94.3045 58.2315 94.3045 59.2041C94.3045 59.7762 94.1886 60.1767 93.9567 60.4628C93.7249 60.6916 93.3771 60.806 92.8555 60.806C92.3338 60.806 91.986 60.6916 91.7542 60.4628C91.5223 60.2339 91.4064 59.8334 91.4064 59.3185C91.4064 58.7464 91.5223 57.7166 91.6962 56.3435C91.8701 55.1421 91.9281 54.3983 91.9281 54.0551C91.9281 53.8262 91.8701 53.7118 91.6962 53.7118C91.5223 53.7118 91.2325 53.9978 90.8847 54.4555C90.537 54.9704 90.1892 55.5998 89.8414 56.4007C89.4937 57.2017 89.2038 58.0599 88.972 58.9753C88.7981 59.6618 88.6242 60.1767 88.3924 60.4056C88.2185 60.6916 87.8707 60.8633 87.407 60.8633Z" fill="#323232"/>
<path d="M52.9195 48.7916C53.2673 49.0777 53.731 49.1921 54.3686 49.1921C55.0062 49.1921 55.5278 49.0205 55.9336 48.6772C56.3393 48.3339 56.5132 47.819 56.5132 47.2469C56.5132 46.732 56.3393 46.3887 55.9915 46.1027C55.6437 45.8166 55.1801 45.7022 54.6584 45.7022C54.0208 45.7022 53.4991 45.8738 53.0934 46.2743C52.6877 46.6176 52.5138 47.0753 52.5138 47.5902C52.4558 48.1051 52.6297 48.5055 52.9195 48.7916Z" fill="#323232"/>
<path d="M0.289856 10.4598C2.08668 7.99974 4.40517 5.99733 7.01347 4.33819C9.62177 2.67905 12.5778 1.47761 15.6498 0.848279C17.2148 0.505009 18.8378 0.333374 20.4027 0.333374C21.9677 0.333374 23.5907 0.505009 25.1556 0.733856C28.2856 1.24876 31.2417 2.45021 34.0238 3.8805L34.4875 4.10934L34.6035 4.62425C34.9512 6.56945 35.0092 8.40022 35.0672 10.2882C35.1251 12.1762 34.9512 14.0642 34.7194 15.895C34.6035 16.8103 34.4296 17.7257 34.1977 18.6411C34.0238 19.5565 33.734 20.4719 33.4442 21.3301C32.8646 23.1036 32.1111 24.82 31.1257 26.4219C31.7633 24.7055 32.227 22.932 32.5168 21.1012C32.8066 19.3277 33.0385 17.4969 33.0964 15.7233C33.2124 13.8925 33.1544 12.119 33.0385 10.2882C32.9226 8.51464 32.6907 6.68387 32.4009 4.96752L32.9805 5.71127C30.3722 4.3954 27.59 3.36559 24.7499 2.85069C21.9097 2.33578 18.9537 2.22136 16.0556 2.62184C13.1575 3.02232 10.3753 3.99492 7.70901 5.31079C5.04275 6.74108 2.49242 8.40022 0.289856 10.4598Z" fill="#323232"/>
<path d="M30.3722 7.99969C28.8652 10.1165 26.8944 11.8901 24.7498 13.4348C22.5473 14.9223 20.1129 16.0665 17.4466 16.6959C14.8383 17.3252 12.0561 17.4968 9.33191 17.1536C6.60769 16.8103 3.99939 16.0665 1.50702 14.9795L3.24588 13.492C3.47773 14.1213 3.8255 14.8651 4.17328 15.4944C4.52105 16.181 4.86882 16.8675 5.2166 17.4968C5.9701 18.8127 6.78157 20.1286 7.59304 21.33C9.33191 23.7901 11.3026 26.0786 13.5631 28.1382C14.6644 29.168 15.8816 30.0834 17.0988 30.9988C18.374 31.857 19.6492 32.6579 21.0403 33.4017C23.7645 34.832 26.7206 35.919 29.7926 36.72C28.2276 36.72 26.6046 36.6055 24.9817 36.2623C24.1702 36.1478 23.4167 35.919 22.6052 35.7474C21.8517 35.5185 21.0403 35.2897 20.2868 35.0036C18.7218 34.4315 17.2727 33.7449 15.8237 32.944C14.3746 32.143 13.0415 31.1704 11.7663 30.1406C9.27395 28.1382 7.07139 25.6781 5.2166 22.9892C4.2892 21.6733 3.47773 20.243 2.72422 18.8127C2.37645 18.0689 2.02868 17.3252 1.6809 16.5814C1.33313 15.8377 1.10128 15.0939 0.81147 14.2358L0 11.5468L2.55034 12.7483C4.81086 13.8353 7.18731 14.6362 9.62172 15.0939C12.0561 15.4944 14.6065 15.5516 17.0409 15.1512C19.5333 14.6935 21.9097 13.8925 24.1702 12.6338C25.2715 12.0045 26.3728 11.318 27.4161 10.5742C28.5174 9.77326 29.5027 8.97229 30.3722 7.99969Z" fill="#EA3846"/>
<path d="M7.59302 30.0262C10.8969 32.143 13.5631 35.2325 15.4759 38.6652C17.3307 42.1551 18.374 46.1599 18.4319 50.1647L18.316 53.0253C18.316 53.7119 18.5479 54.3984 18.9536 54.9133C19.0695 55.0277 19.1855 55.1994 19.3593 55.3138C19.5332 55.4282 19.6491 55.5998 19.823 55.7143C20.1708 55.9431 20.5186 56.172 20.8664 56.3436C21.6199 56.6869 22.4313 56.8585 23.3008 56.9157C24.1702 56.9729 25.0396 56.8013 25.8511 56.5724C26.6626 56.2864 27.474 55.8287 28.1696 55.3138C29.6186 54.2268 30.8358 52.682 31.8212 51.0229C31.2995 52.9109 30.3722 54.6845 28.9231 56.1147C28.2276 56.8585 27.3581 57.4878 26.3728 57.9455C25.8511 58.1744 25.3874 58.346 24.8657 58.4604C24.3441 58.6321 23.8224 58.6321 23.3008 58.6893C22.7791 58.6893 22.1995 58.6893 21.6778 58.6321C21.1562 58.5748 20.5765 58.4032 20.0549 58.1744C19.5332 57.9455 19.0116 57.7167 18.5479 57.4306C18.316 57.259 18.0842 57.0873 17.8523 56.9157C17.6205 56.7441 17.4466 56.5724 17.2147 56.3436C16.3453 55.4282 15.8816 54.2268 15.8816 52.9681L15.9975 50.1075C15.9975 46.446 15.1861 42.7844 13.737 39.3517C12.3459 36.0334 10.2593 32.8296 7.59302 30.0262Z" fill="#323232"/>
<path d="M33.8499 10.2882C34.1977 9.77331 34.6034 9.31562 35.1251 8.91513C35.6467 8.51465 36.1684 8.17138 36.9219 8.05696C37.2697 7.99975 37.6754 7.99975 38.0232 8.11417C38.4289 8.22859 38.7187 8.45744 39.0085 8.68629C39.3563 9.02956 39.4722 9.54446 39.4722 9.88773C39.4722 10.2882 39.4143 10.6315 39.2984 10.9175C38.8926 12.1762 38.1971 13.206 37.4436 14.2358C36.6901 15.2084 35.8206 16.1238 34.8932 16.9248C35.4729 15.8377 36.1104 14.8079 36.6901 13.7781C36.9799 13.2632 37.2697 12.7483 37.5595 12.2334C37.8493 11.7185 38.0812 11.2036 38.1971 10.6887C38.371 10.1738 38.371 9.65889 38.1971 9.48725C37.9073 9.14398 37.5015 8.97235 36.9799 8.97235C36.4582 8.97235 35.9366 9.20119 35.4149 9.43004C34.8932 9.65889 34.3716 9.94494 33.8499 10.2882Z" fill="#323232"/>
<path d="M22.3154 48.8489C22.3154 48.3912 22.5473 47.9335 22.8371 47.5902C23.1269 47.2469 23.5906 46.9609 24.0543 46.7892C25.0397 46.5032 26.1409 46.9037 26.7785 47.7046C27.0683 48.1051 27.2422 48.62 27.3002 49.1349C27.3002 49.6498 27.1843 50.1647 26.8944 50.5652C26.6046 50.9657 26.2569 51.309 25.7932 51.4806C25.3295 51.6522 24.8658 51.7095 24.4021 51.595C25.3295 51.595 26.1409 51.0229 26.4887 50.2792C26.8365 49.5354 26.7785 48.62 26.3148 47.9907C25.8511 47.3614 24.9817 47.0181 24.1702 47.1325C23.3587 47.3614 22.5473 47.9907 22.3154 48.8489Z" fill="#323232"/>
</g>
<defs>
<clipPath id="clip0_8_885">
<rect width="95" height="63.3333" fill="white" transform="translate(0 0.333344)"/>
</clipPath>
</defs>
</svg>
